PathFileType	4	(X/Y/Z)	Patient3_R_AnkleIso_Processed.trc
DataRate	CameraRate	NumFrames	NumMarkers	Units	OrigDataRate	OrigDataStartFrame	OrigNumFrames
100.000000000000	100.000000000000	4	33	mm	100.000000000000	264	       301
Frame#	Time	L.Toe			R.Toe			R.Shoulder			L.Heel			Neck			R.Heel			L.Shank.Lateral			R.Shank.Lateral			L.Midfoot.Superior			L.Elbow			R.Midfoot.Lateral			R.Midfoot.Superior			L.Shoulder			R.Thigh.Lateral			R.Elbow			Sacral			L.Thigh.Superior			R.Patella			R.Wrist			R.Shank.Superior			L.Wrist			R.Shank.Inferior			R.Thigh.Superior			R.Thigh.Inferior			L.Asis			L.Shank.Inferior			L.Midfoot.Lateral			Sternum			L.Shank.Superior			R.Asis			L.Patella			L.Thigh.Lateral			L.Thigh.Inferior			
		X1	Y1	Z1	X2	Y2	Z2	X3	Y3	Z3	X4	Y4	Z4	X5	Y5	Z5	X6	Y6	Z6	X7	Y7	Z7	X8	Y8	Z8	X9	Y9	Z9	X10	Y10	Z10	X11	Y11	Z11	X12	Y12	Z12	X13	Y13	Z13	X14	Y14	Z14	X15	Y15	Z15	X16	Y16	Z16	X17	Y17	Z17	X18	Y18	Z18	X19	Y19	Z19	X20	Y20	Z20	X21	Y21	Z21	X22	Y22	Z22	X23	Y23	Z23	X24	Y24	Z24	X25	Y25	Z25	X26	Y26	Z26	X27	Y27	Z27	X28	Y28	Z28	X29	Y29	Z29	X30	Y30	Z30	X31	Y31	Z31	X32	Y32	Z32	X33	Y33	Z33	

264	3.130000000000	706.037628427217	42.150026659611	376.810499784180	1122.602853334352	137.267784827355	712.389803907689	458.833947890378	1439.126901271188	515.710741431810	415.050988165536	33.082542180652	427.117823382191	426.142513169244	1463.672776756186	368.776816205603	831.600805924184	165.552370038259	655.439180758680	486.966632553449	324.997686848939	295.580337059047	748.926959923877	432.275400784207	693.753542699743	586.360198666359	90.099990788879	390.685524525052	363.530251549003	1118.535968070033	99.815805309221	908.609773681631	162.693727758333	727.273226690049	1007.909904306740	202.761460800784	682.718675701753	471.054211985276	1432.528289949962	223.693510324565	631.536698331258	727.205770338938	637.990007743437	555.371754379064	1130.610266142209	649.989956685017	420.704143783971	967.677552400626	376.636618351879	670.156190654749	737.137023450351	307.319155480319	781.477455381451	609.947071497149	605.963022830840	644.203144589106	1268.725180217138	461.074416590722	805.230341156139	505.882920598826	644.914244584307	537.327665965968	1011.138541194773	-58.042716963706	882.631390632311	347.969107650568	666.908757965976	690.897139473902	801.968994211838	577.417599666617	735.736951129001	699.879911627264	585.915242532539	622.800089068686	965.986375639411	278.791728230106	552.879524542674	229.744922327623	367.827023151814	490.670033792481	27.319010458382	359.303719620539	567.767952532144	1375.330141102901	379.928925011128	578.576051330379	381.306108868151	337.005895303058	556.673600554733	997.037085640142	532.025826855354	622.655522826250	489.681490475365	349.098913157146	572.956455905493	656.289364272530	259.324725194463	648.740226701334	607.758166802541	327.473849018035	
265	3.140000000000	706.047795314261	42.127896980454	376.809334848689	1122.369760923201	135.709065973643	711.462451444325	459.097911387173	1439.129746461380	515.731707731660	415.054215013004	33.082763576557	427.116841993245	426.290928095718	1463.697910852284	368.836180773262	831.258507523589	166.227510184449	656.114043177338	486.915231372684	324.988315024076	295.526564851038	749.188432219825	432.551773404273	694.016812637692	586.368339649155	90.101207096522	390.673702473521	363.482045700196	1118.634515959548	99.798126362980	908.636710910398	162.710970699178	727.504726127890	1007.976477604825	202.239165533330	682.535454634248	471.100713184594	1432.584726969555	223.707285915568	631.801877408718	727.347944905190	637.954980760905	555.664759527273	1130.570077192886	649.884665018082	420.712244209526	967.709205504452	376.655027040113	670.127768999249	737.118010452114	307.137611963034	781.729456321982	610.038630376796	605.896422138280	644.381424365863	1268.694678854445	460.926428093376	805.472517251971	506.012838208005	644.922089999417	537.232689260100	1011.233724703742	-58.119747826377	882.776113243386	348.076646415709	667.059073425135	691.114777792139	802.041274377353	577.242777345745	735.956568001332	699.957705545555	585.812752820445	622.770550263337	965.964001662421	278.619182296306	552.857176791857	229.736972665779	367.765640101637	490.672620479386	27.316395178257	359.303789894486	567.908317372859	1375.325147498689	379.852824617336	578.543766683542	381.289776932892	336.918072403884	556.880772571952	997.033218397409	531.905025744819	622.634984296219	489.670502876863	348.979086461783	572.886641765060	656.269010827334	259.212277732044	648.713439699482	607.748054152007	327.322020460799	
266	3.150000000000	706.057471845453	42.107113504710	376.808143880076	1122.104549176929	134.172705611789	710.513555624909	459.348032337074	1439.134349900810	515.745540857858	415.056971328600	33.083333133574	427.114915810045	426.430978378802	1463.722663937783	368.886908180874	830.899857428151	166.874687183523	656.790295835610	486.850271227364	324.981659488438	295.463604801201	749.443733263384	432.828575201787	694.274679423167	586.375495465022	90.102128505398	390.659258009124	363.430253926533	1118.733132103371	99.775209385962	908.647511222759	162.717391697297	727.726735033647	1008.014525395625	201.718053800750	682.333620104460	471.145766231940	1432.640238962636	223.714834178948	632.061607888513	727.489007327736	637.907561402755	555.951817145934	1130.537770985651	649.780784057820	420.720152485622	967.742655912673	376.663005592904	670.092738846247	737.097040270962	306.946001953652	781.972363186452	610.124407470969	605.814052980604	644.554349639260	1268.673034920389	460.780550853760	805.707414572894	506.137061190599	644.911625185759	537.126421470907	1011.320252700842	-58.205087922409	882.905648553912	348.174410205873	667.189722662111	691.326753429394	802.111008255820	577.054150167259	736.168307445919	700.031874101874	585.695349769494	622.739821231209	965.940268659471	278.443770255699	552.827539858215	229.727517212548	367.688573845383	490.674714056251	27.312297305371	359.303508789241	568.042447332896	1375.324060527415	379.774799228876	578.502544916014	381.270126246607	336.815093788548	557.080084834668	997.028849442146	531.778121984263	622.611905242015	489.657954562003	348.841545903527	572.809626172324	656.249078883272	259.090827779777	648.678167332333	607.735373311762	327.156427707157	
267	3.160000000000	706.066620421721	42.088097785654	376.807039195272	1121.807365689358	132.651387817725	709.538301038306	459.583549072791	1439.140846947283	515.751727257101	415.059250625444	33.084340763194	427.112034581316	426.562577954390	1463.746862426958	368.928237973794	830.523697429956	167.496025762388	657.466904033872	486.771745834463	324.978309478388	295.391080714647	749.693110726754	433.104461904058	694.526388267102	586.381638310958	90.102846676252	390.642145838474	363.374951179813	1118.831527180743	99.746677846722	908.642403421762	162.711370765506	727.937633622879	1008.024880259427	201.194523804766	682.111038501978	471.190022459694	1432.694343849362	223.715652415759	632.316345143942	727.628199963650	637.848795752327	556.230757458209	1130.513568752033	649.678975275564	420.728889510613	967.777247363762	376.660485127809	670.051902790498	737.074593658432	306.742377879876	782.206138139381	610.203497886056	605.716133487185	644.721260290118	1268.660073821665	460.637665168034	805.934777413495	506.254337558930	644.882865999825	537.009905010721	1011.398202883281	-58.298038417149	883.019916053786	348.261055188218	667.300312068080	691.533580517350	802.177267978429	576.852646259787	736.372382007955	700.101331661181	585.563605605225	622.707691253031	965.915359198328	278.265532077914	552.791086849851	229.716464630535	367.594949950604	490.676348619071	27.306770392406	359.302948165593	568.170283089967	1375.326907847486	379.695010980783	578.453689564069	381.246746572098	336.696025976900	557.272288951438	997.024447946588	531.645169928880	622.588872756636	489.643523290306	348.684784158432	572.725997985608	656.229907357774	258.960190912206	648.635738597100	607.720085656078	326.974991543261	
